<?xml version="1.0" encoding="UTF-8"?><svg id="Layer_2" xmlns="http://www.w3.org/2000/svg" viewBox="0 0 449.32 459.94"><defs><style>.cls-1{fill:#73beea;}.cls-2{fill:#403e56;}.cls-3{fill:#302e41;}.cls-4{fill:#a0626b;}.cls-5{fill:#e6e6e5;}.cls-6{fill:#f3f3f3;}</style></defs><g id="Layer_1-2"><g id="lowerbody"><g><polygon class="cls-4" points="194.63 452.47 184.07 452.47 179.05 411.75 194.63 411.75 194.63 452.47"/><path class="cls-3" d="M158.46,452.23h0c-.33,.55-.5,2.34-.5,2.98h0c0,1.98,1.6,3.58,3.58,3.58h32.69c1.35,0,2.44-1.09,2.44-2.44v-1.36s1.62-4.09-1.71-9.13c0,0-4.14,3.95-10.32-2.24l-1.82-3.3-13.2,9.65-7.32,.9c-1.6,.2-3.02-.03-3.84,1.36h0Z"/></g><g><polygon class="cls-4" points="147.33 452.47 136.77 452.47 131.75 411.75 147.33 411.75 147.33 452.47"/><path class="cls-3" d="M111.16,452.23h0c-.33,.55-.5,2.34-.5,2.98h0c0,1.98,1.6,3.58,3.58,3.58h32.69c1.35,0,2.44-1.09,2.44-2.44v-1.36s1.62-4.09-1.71-9.13c0,0-4.14,3.95-10.32-2.24l-1.82-3.3-13.2,9.65-7.32,.9c-1.6,.2-3.02-.03-3.84,1.36h0Z"/></g><polygon class="cls-3" points="195.53 197.01 205.36 222.2 197.68 423.37 176.18 423.37 156.83 241.85 152.23 423.99 131.34 423.37 108.61 221.28 123.66 203.15 195.53 197.01"/></g><g><path class="cls-6" d="M447.16,338.23c-1.12-1.88-5.94,.13-6.83-1.57-.88-1.7,3.6-4.29,6.16-10.22,.46-1.07,3.37-7.8,1.22-9.87-4.09-3.94-22.78,12.31-29.33,6.99-1.44-1.17-2.44-3.5-6.79-7.28-1.73-1.5-2.77-2.18-3.79-1.93-1.44,.36-1.55,2.28-3.09,6.06-2.31,5.67-3.67,5.32-5.02,9.84-1,3.36-.77,5.31-1.95,5.69-1.66,.54-3.19-3.02-5.3-2.7-2.15,.33-3.45,4.47-3.86,7.57-.77,5.82,1.37,9.67,2.55,13.71,1.29,4.39,2.05,11.07-.92,20.52l-29.44,82.95c6.5-17.02,25.32-63.68,33.23-81.02,2.28-5.01,4.8-10.08,9.98-12.09,4.98-1.93,11.83-.78,20.55-2.88,1.02-.25,3.85-.96,4.2-2.63,.29-1.37-1.37-2.14-1.11-3.43,.34-1.73,3.61-1.75,7.63-3.74,2.83-1.41,4.6-3.08,6.12-4.51,.46-.43,7.26-6.95,5.78-9.46h0Z"/><path class="cls-6" d="M331.33,381.9c-1.25,0-1.65,2.96-2.74,2.9-1.09-.06-1.07-3.01-3.24-5.97-.39-.53-2.85-3.91-4.49-3.45-3.11,.87-.53,14.73-5.03,16.41-.99,.37-2.42,.19-5.53,1.23-1.24,.41-1.87,.73-2.04,1.3-.24,.81,.67,1.42,2.08,3.26,2.11,2.77,1.55,3.34,3.38,5.3,1.36,1.46,2.38,1.91,2.23,2.6-.22,.97-2.4,.7-2.86,1.82-.46,1.15,1.2,2.98,2.6,4.08,2.64,2.06,5.14,2.12,7.46,2.7,2.53,.63,6.02,2.19,9.81,6.37l32.22,38.38c-6.48-8.1-23.95-30.8-30.18-39.69-1.8-2.56-3.56-5.27-3.05-8.39,.49-3,3.03-6.03,4.52-10.92,.17-.57,.64-2.17-.08-2.82-.59-.54-1.45,.05-2-.44-.75-.67,.18-2.28,.37-4.83,.13-1.8-.18-3.15-.45-4.31-.08-.35-1.32-5.57-2.98-5.56h0Z"/><path class="cls-6" d="M356.17,387.47l-.75-6.7,.34-.51c1.59-2.35,2.39-4.64,2.4-6.82,0-.35-.01-.69-.03-1.04-.06-1.4-.15-3.13,.76-5.16,.51-1.13,1.93-3.74,4.08-3.42,.58,.08,1.01,.35,1.35,.66,.05-.08,.1-.16,.15-.24,.67-1.02,1.2-1.46,1.71-1.88,.39-.32,.8-.66,1.43-1.45,.28-.35,.49-.65,.68-.91,.55-.77,1.28-1.69,2.56-1.68,1.36,.06,2.08,1.19,2.55,1.94,.85,1.33,1.23,2.29,1.48,2.93,.09,.23,.2,.49,.25,.58,.44,.65,4.02,.04,5.36-.18,3.03-.5,5.64-.94,6.72,.97,.77,1.36,.2,3.17-1.76,5.51-.61,.73-1.26,1.28-1.83,1.71,.48,.28,.9,.72,1.08,1.41h0c.41,1.62-.99,3.25-4.15,4.84-.78,.4-1.84,.93-3.32,1.18-.7,.12-1.32,.15-1.86,.16-.01,.31-.08,.65-.27,.99-.55,1.02-1.71,1.5-3.45,1.39-1.91-.1-3.49-.47-4.88-.79-1.21-.28-2.26-.51-3.08-.46-1.52,.12-2.7,1.34-4.08,2.92l-3.44,4.02h0Z"/><path class="cls-6" d="M359.65,347.59l-6.29,2.42-.58-.2c-2.67-.94-5.1-1.14-7.2-.6-.34,.09-.67,.19-1,.29-1.34,.42-2.99,.94-5.18,.57-1.22-.2-4.11-.92-4.34-3.08-.07-.58,.08-1.07,.29-1.47-.09-.03-.18-.06-.27-.09-1.15-.39-1.71-.79-2.25-1.17-.41-.3-.84-.6-1.76-1.02-.41-.18-.75-.31-1.05-.43-.89-.34-1.96-.81-2.27-2.05-.28-1.34,.63-2.31,1.23-2.96,1.07-1.16,1.91-1.77,2.46-2.18,.2-.15,.43-.32,.49-.39,.51-.59-.98-3.89-1.53-5.14-1.26-2.8-2.34-5.22-.77-6.75,1.12-1.09,3.02-1,5.77,.3,.86,.41,1.56,.89,2.12,1.34,.15-.53,.47-1.06,1.09-1.4h0c1.47-.81,3.39,.13,5.73,2.78,.58,.66,1.36,1.54,1.99,2.91,.29,.64,.48,1.24,.63,1.76,.3-.07,.65-.08,1.03,.01,1.13,.28,1.89,1.27,2.22,2.98,.39,1.88,.44,3.5,.48,4.92,.04,1.25,.08,2.32,.34,3.1,.51,1.44,1.98,2.27,3.86,3.2l4.76,2.31h0Z"/><path class="cls-6" d="M356.17,327.86l-.75-6.7,.34-.51c1.59-2.35,2.39-4.64,2.4-6.82,0-.35-.01-.69-.03-1.04-.06-1.4-.15-3.13,.76-5.16,.51-1.13,1.93-3.74,4.08-3.42,.58,.08,1.01,.35,1.35,.66,.05-.08,.1-.16,.15-.24,.67-1.02,1.2-1.46,1.71-1.88,.39-.32,.8-.66,1.43-1.45,.28-.35,.49-.65,.68-.91,.55-.77,1.28-1.69,2.56-1.68,1.36,.06,2.08,1.19,2.55,1.94,.85,1.33,1.23,2.29,1.48,2.93,.09,.23,.2,.49,.25,.58,.44,.65,4.02,.04,5.36-.18,3.03-.5,5.64-.94,6.72,.97,.77,1.36,.2,3.17-1.76,5.51-.61,.73-1.26,1.28-1.83,1.71,.48,.28,.9,.72,1.08,1.41h0c.41,1.62-.99,3.25-4.15,4.84-.78,.4-1.84,.93-3.32,1.18-.7,.12-1.32,.15-1.86,.16-.01,.31-.08,.65-.27,.99-.55,1.02-1.71,1.5-3.45,1.39-1.91-.1-3.49-.47-4.88-.79-1.21-.28-2.26-.51-3.08-.46-1.52,.12-2.7,1.34-4.08,2.92l-3.44,4.02h0Z"/><path class="cls-6" d="M363.03,457.88l-1.4-.88-.34-1.62,.34,1.62-1.64,.19c-.03-.15-.11-.5-.25-1.05-.73-2.99-2.97-12.11-4.83-26.46-1.3-10.02-2.04-20.32-2.19-30.62-.15-10.32,.34-18.13,.73-24.41,.3-4.73,.65-9.24,1.01-13.64,.94-11.73,1.82-22.82,1.16-35.09-.15-2.74-.45-8.44-3.78-14.51-1.93-3.52-4.59-6.64-7.91-9.28l2.06-2.59c3.66,2.92,6.61,6.38,8.75,10.28,3.69,6.73,4.03,12.94,4.19,15.93,.67,12.49-.22,23.68-1.17,35.52-.35,4.38-.71,8.86-1,13.58-.39,6.22-.87,13.96-.72,24.15,.15,10.18,.88,20.35,2.16,30.25,1.84,14.17,4.04,23.15,4.76,26.1,.38,1.58,.47,1.9,.07,2.53h0Z"/><path class="cls-6" d="M337.85,307.39c-.14,0-.27,0-.41-.01-2.82-.15-5.43-1.84-7.76-5.02-1.09-1.49-1.65-3.2-2.77-6.6-.17-.52-1.01-3.18-1.52-6.84-.33-2.39-.29-3.39,.18-4.27,.53-.98,1.38-1.67,2.33-2.13-.04-.32,0-.64,.13-.98,.56-1.38,2.07-1.2,2.88-1.11,.41,.05,.92,.12,1.48,.09,.87-.04,1.34-.3,2.05-.69,.68-.37,1.52-.83,2.77-1.09,2.46-.51,4.53,.18,5.21,.41,3.58,1.19,5.35,3.98,7.39,7.2,.41,.65,1.81,3,2.73,6.23,.67,2.33,.57,3.36,.37,4.13-.41,1.58-1.37,2.49-3.81,4.49-2.55,2.09-3.83,3.14-4.93,3.78-2.56,1.48-4.17,2.41-6.3,2.41h0Z"/></g><g><circle class="cls-4" cx="162.36" cy="28.7" r="19.04"/><path class="cls-3" d="M146.08,40.06l4.55,3.63-5.17-19.61s14.44-.31,15.66-8.29c0,0,11.36-.31,14.44-.31s4.46,20.32,4.46,20.32c0,0,5.99-16.64-.16-25.24s-3.99-3.38-5.22-6.45-13.82-5.9-21.81-2.76-8.29,7.6-10.75,7.64-11.06,12.33-3.07,22.16c7.99,9.83,7.06,8.91,7.06,8.91h0Z"/></g><g id="body"><path class="cls-5" d="M149.16,54.19l25.8-1.84,7.99,12.9,23.96,6.76-8.91,62.35,9.52,93.06s-34.4-4.91-36.86,4.91-62.66-9.83-62.66-9.83l20.58-63.58-1.84-49.76-5.53-28.87,25.19-11.67,2.76-14.44h0Z"/><path class="cls-2" d="M143.09,68.7l7.61-4.21,3.3,67.41-1.15,8.29s-19.21-52.98-9.76-71.49Z"/><path class="cls-5" d="M137.48,72.62s-20.56-.31-23.33,8.29c-2.77,8.6-11.99,68.18-11.99,68.18l-7.06,26.11,31.64-15.66-6.76-10.43,22.11-42.4-4.61-34.09h0Z"/></g><g id="guitar"><path class="cls-1" d="M150.06,168.14c3.4,0,6.56-1.96,7.88-5.09,1-2.37,.91-4.64,.16-6.59,.24-.1,.48-.2,.73-.29-.36-.15-.71-.31-1.07-.48-1.22-2.44-3.57-4.21-6.37-4.64-3.46-3.71-5.59-8.68-5.61-14.15-.05-11.28,9.1-20.7,20.37-20.97,.09,0,.18,0,.27,0,5.05-.06,9.63,2.77,12.18,7.12,1.49,2.54,4.25,4.24,7.41,4.24,2.42,0,4.6-1,6.16-2.61,3.4-3.5,7.65-6.11,12.47-6.91,3.16-.53,6.44-.72,9.78-.56,22.92,1.14,42.65,21.46,43.14,44.41,.55,25.56-20.01,46.45-45.45,46.45-13.23,0-25.14-5.66-33.45-14.69-3.69-4.01-8.85-6.25-14.3-6.2-.06,0-.11,0-.17,0-8.82,0-15.97-7.15-15.97-15.97,0-.49,.02-.97,.07-1.45,.09-.89,.86-1.62,1.76-1.62h0Z"/><g><polygon class="cls-1" points="225.63 154.63 72.68 125.76 72.06 136.81 223.79 173.06 225.63 154.63"/><path class="cls-1" d="M74.52,127.6l-1.84-1.84s-7.99-3.69-7.99-4.3c0-.38-11.79-4.38-20.61-7.31-4.93-1.64-10.13,1.6-10.83,6.75l-1.11,8.11c-.66,4.85,3,9.21,7.89,9.41l21.6,.86,10.44-2.46,2.46-9.21Z"/><polygon class="cls-2" points="225.33 158.01 225.69 156.48 72.64 127.22 72.37 129.13 225.33 158.01"/><polygon class="cls-2" points="224.97 160.91 225.33 159.23 72.47 130.24 72.37 132.21 224.97 160.91"/><polygon class="cls-2" points="224.62 164.39 224.71 161.69 72.35 132.45 72.37 134.05 224.62 164.39"/><polygon class="cls-2" points="224.22 168.44 224.1 165.99 72.13 134.65 72 135.25 224.22 168.44"/><polygon class="cls-2" points="224.21 170.89 224.1 169.06 72.36 135.67 72.22 136.27 224.21 170.89"/></g></g><g id="hand2"><path class="cls-4" d="M117.73,141c-1.67,2.35-2.68,4.89-2.99,7.2l-17.37,21.4,10.42,7.97,16.5-22.57c2.08-1.05,4.15-2.83,5.82-5.18,3.83-5.37,4.16-11.7,.74-14.14-3.42-2.43-9.29-.05-13.12,5.32h0Z"/><polyline class="cls-5" points="99.99 160.91 95.1 175.21 109.23 182.58 119.98 175.21 126.73 159.54 106.77 153.71"/></g><g id="hand1"><path class="cls-4" d="M204.26,165.03c2.26-1.8,3.92-3.96,4.86-6.1l22.59-15.8-7.83-10.53-22.07,17.16c-2.29,.44-4.77,1.58-7.02,3.38-5.16,4.11-7.21,10.11-4.6,13.39s8.92,2.61,14.08-1.51h0Z"/><path class="cls-5" d="M197.07,76s5.53-9.21,11.06-3.69c4.37,4.37,28.37,32.21,38.19,43.64,2.71,3.15,4.2,7.17,4.2,11.32h0c0,6.43-3.55,12.33-9.23,15.35l-30.7,16.3-8.6-12.9,26.41-19.04-40.54-22.11,9.21-28.87h0Z"/></g><g id="note1"><path class="cls-1" d="M328.4,23.91l-46.41,12.61,6.75,30.11c-2.18-1.47-4.81-2.32-7.64-2.32-7.58,0-13.72,6.14-13.72,13.72s6.14,13.72,13.72,13.72,13.72-6.14,13.72-13.72c0-2.63-.76-5.09-2.04-7.18l-5.35-23.87,40.03-12.59,3.66,17.78c-2.2-1.49-4.85-2.37-7.71-2.37-7.58,0-13.72,6.14-13.72,13.72s6.14,13.72,13.72,13.72,13.72-6.14,13.72-13.72c0-2.66-.77-5.14-2.08-7.24l-6.67-32.38Z"/></g><g id="note2"><path class="cls-1" d="M373.91,52.06c-7.5,0-13.58,6.08-13.58,13.58,0,2.12,.5,4.12,1.37,5.91l7.75,31.98,4.4-1.07-5.98-24.67c1.82,.91,3.87,1.43,6.04,1.43,7.5,0,13.58-6.08,13.58-13.58s-6.08-13.58-13.58-13.58h0Z"/></g><g id="note3"><path class="cls-1" d="M429.18,122.54l-7.7-30.78-4.67,1.1,6.02,24.07c-1.85-.84-3.91-1.32-6.09-1.32-7.96,0-14.42,6.26-14.42,13.98s6.46,13.98,14.42,13.98,14.42-6.26,14.42-13.98c0-2.58-.73-4.98-1.99-7.06h0Z"/></g><path class="cls-5" d="M449.32,458.99h0c0,.52-.42,.95-.95,.95H0v-1.9H448.37c.52,0,.95,.42,.95,.95h0Z"/></g></svg>