<svg xmlns="http://www.w3.org/2000/svg" width="1111.801" height="919.27" viewBox="0 0 1111.801 919.27">
  <g id="mandesk" transform="translate(-443.427 -113.17)">
    <g id="background">
      <path id="Path_35" data-name="Path 35" d="M534,68.31c-44.08-17.92-90.65-32.88-138.19-31-69.9,2.75-136.94,44.8-169.85,106.53-27.89,52.3-31.33,113.6-43.34,171.64C167.8,387,139.46,454.94,109.18,521.4,92.92,557.1,75.76,593.57,73.1,632.71c-3.71,54.32,22.26,108.46,63,144.6s94.82,55.21,149.11,59.37c28.89,2.21,59.08.16,84.75-13.29,27.14-14.22,46.94-39.93,74.19-53.95,25.26-13,54.81-14.83,83.17-13.13A372.668,372.668,0,0,1,635.9,779.39c39.64,14.89,76.5,36.44,116.05,51.54s83.74,23.51,124.17,10.92c37.94-11.83,68-40.56,95-69.66a1218.831,1218.831,0,0,0,121.17-153.3c24.41-36.56,47.13-75.14,57.93-117.76,20.63-81.48-7.77-173.41-70.76-229C1027.3,226,957.26,206,888.7,193.82c-62.52-11.07-134.81-11.76-192.36-40.62C641.46,125.68,591.52,91.71,534,68.31Z" transform="translate(370.679 119.28)" fill="#f3906b" opacity="0.1"/>
      <circle id="Ellipse_17" data-name="Ellipse 17" cx="36.25" cy="36.25" r="36.25" transform="translate(887.5 938.31)" fill="#f3906b" opacity="0.1"/>
      <circle id="Ellipse_14" data-name="Ellipse 14" cx="21.63" cy="21.63" r="21.63" transform="translate(1186.951 134.8)" fill="#f3906b" opacity="0.1"/>
      <circle id="Ellipse_15" data-name="Ellipse 15" cx="36.25" cy="36.25" r="36.25" transform="translate(465.63 214.2)" fill="#f3906b" opacity="0.1"/>
      <circle id="Ellipse_12" data-name="Ellipse 12" cx="21.63" cy="21.63" r="21.63" transform="translate(480.25 113.17)" fill="#f3906b" opacity="0.1"/>
      <circle id="Ellipse_13" data-name="Ellipse 13" cx="21.63" cy="21.63" r="21.63" transform="translate(805.57 989.18)" fill="#f3906b" opacity="0.1"/>
    </g>
    <g id="plant" transform="translate(601.028 1003.467)">
      <ellipse id="Ellipse_5" data-name="Ellipse 5" cx="23.11" cy="3.17" rx="23.11" ry="3.17" transform="translate(907.98 -197.82)" fill="#f3906b" opacity="0.1"/>
      <ellipse id="Ellipse_6" data-name="Ellipse 6" cx="23.11" cy="3.17" rx="23.11" ry="3.17" transform="translate(819.44 -188.84)" fill="#f3906b" opacity="0.1"/>
      <ellipse id="Ellipse_7" data-name="Ellipse 7" cx="23.11" cy="3.17" rx="23.11" ry="3.17" transform="translate(715.16 -200.99)" fill="#f3906b" opacity="0.1"/>
      <ellipse id="Ellipse_8" data-name="Ellipse 8" cx="16.43" cy="2.26" rx="16.43" ry="2.26" transform="translate(861.56 -162.37)" fill="#f3906b" opacity="0.1"/>
      <ellipse id="Ellipse_9" data-name="Ellipse 9" cx="16.43" cy="2.26" rx="16.43" ry="2.26" transform="translate(769.67 -164.63)" fill="#f3906b" opacity="0.1"/>
      <path id="Path_135" data-name="Path 135" d="M249.16,727.77S281.57,621.51,244.08,579c-28-31.84-59.87-28-74.13-24.09a26.34,26.34,0,0,0-17,14.12c-5,10.76-4.08,28.21,31.1,48.58,58.92,34.11,62.58,80.9,62.58,80.9Z" transform="translate(592.9 -914.15)" fill="#f3906b"/>
      <path id="Path_136" data-name="Path 136" d="M175,569.93s95.56,29.87,74.14,157.84" transform="translate(592.9 -914.15)" fill="none" stroke="#565987" stroke-miterlimit="10" stroke-width="1"/>
      <path id="Path_137" data-name="Path 137" d="M230.83,580.64s-13.15,8.86-9,22.19" transform="translate(592.9 -914.15)" fill="none" stroke="#565987" stroke-miterlimit="10" stroke-width="1"/>
      <path id="Path_138" data-name="Path 138" d="M184.61,588.53s8-8.18,17.83-3.67" transform="translate(592.9 -914.15)" fill="none" stroke="#565987" stroke-miterlimit="10" stroke-width="1"/>
      <path id="Path_139" data-name="Path 139" d="M222.38,629.68s14.12-7.17,17.78,1.81" transform="translate(592.46 -759.246)" fill="none" stroke="#565987" stroke-miterlimit="10" stroke-width="1"/>
      <path id="Path_140" data-name="Path 140" d="M257.33,644.62s-10.61-.84-10.8,4.23" transform="translate(592.9 -914.15)" fill="none" stroke="#565987" stroke-miterlimit="10" stroke-width="1"/>
      <path id="Path_141" data-name="Path 141" d="M250.47,728.62s-38-77.23-48.4-75.54c-4.95.8-7.23,5.67-8.26,10.57a31.16,31.16,0,0,0,2.06,18.8C201.26,694.81,215.73,718.28,250.47,728.62Z" transform="translate(592.9 -914.15)" fill="#f3906b"/>
      <path id="Path_142" data-name="Path 142" d="M202.36,667.73s39.84,57.79,47.54,60.32" transform="translate(592.9 -914.15)" fill="none" stroke="#565987" stroke-miterlimit="10" stroke-width="1"/>
      <line id="Line_1" data-name="Line 1" x2="9.3" transform="translate(791.59 -237.4)" fill="none" stroke="#565987" stroke-miterlimit="10" stroke-width="1"/>
      <line id="Line_2" data-name="Line 2" x2="14.58" y2="0.62" transform="translate(802.73 -216.26)" fill="none" stroke="#565987" stroke-miterlimit="10" stroke-width="1"/>
      <line id="Line_3" data-name="Line 3" x1="1.58" y2="7.59" transform="translate(810.02 -233.17)" fill="none" stroke="#565987" stroke-miterlimit="10" stroke-width="1"/>
      <line id="Line_4" data-name="Line 4" x1="0.29" y2="6.9" transform="translate(826.82 -210.06)" fill="none" stroke="#565987" stroke-miterlimit="10" stroke-width="1"/>
      <path id="Path_143" data-name="Path 143" d="M249.34,728.62s38-77.23,48.39-75.54c5,.8,7.24,5.67,8.27,10.57a31.08,31.08,0,0,1-2.07,18.8C298.55,694.81,284.08,718.28,249.34,728.62Z" transform="translate(592.9 -914.15)" fill="#f3906b"/>
      <path id="Path_144" data-name="Path 144" d="M297.45,667.73s-39.85,57.79-47.55,60.32" transform="translate(592.9 -914.15)" fill="none" stroke="#565987" stroke-miterlimit="10" stroke-width="1"/>
      <line id="Line_5" data-name="Line 5" x1="9.3" transform="translate(884.71 -237.4)" fill="none" stroke="#565987" stroke-miterlimit="10" stroke-width="1"/>
      <line id="Line_6" data-name="Line 6" x1="14.58" y2="0.62" transform="translate(868.29 -216.26)" fill="none" stroke="#565987" stroke-miterlimit="10" stroke-width="1"/>
      <line id="Line_7" data-name="Line 7" x2="1.58" y2="7.59" transform="translate(874 -233.17)" fill="none" stroke="#565987" stroke-miterlimit="10" stroke-width="1"/>
      <line id="Line_8" data-name="Line 8" x2="0.28" y2="6.9" transform="translate(858.5 -210.06)" fill="none" stroke="#565987" stroke-miterlimit="10" stroke-width="1"/>
      <path id="Path_145" data-name="Path 145" d="M184.15,746.65a6.55,6.55,0,0,1-2.16-3.26,2.9,2.9,0,0,1,1.51-3.32c1.39-.53,2.87.43,4,1.4s2.42,2.08,3.89,1.88a5.9,5.9,0,0,1-1.83-5.53,2.25,2.25,0,0,1,.51-1.13c.77-.82,2.16-.47,3.08.18,2.94,2.06,3.75,6,3.77,9.63a18.14,18.14,0,0,0,.05-4,4.09,4.09,0,0,1,1.49-3.51,4.549,4.549,0,0,1,2.27-.53,4.68,4.68,0,0,1,3.69,1c1.12,1.2.83,3.2-.15,4.52a14.22,14.22,0,0,1-3.81,3.06,8.38,8.38,0,0,0-2.73,2.6,2.77,2.77,0,0,0-.2.46h-8.26a23.054,23.054,0,0,1-5.12-3.45Z" transform="translate(592.9 -914.15)" fill="#f3906b"/>
      <path id="Path_146" data-name="Path 146" d="M328.82,715.55a6.61,6.61,0,0,1-2.17-3.26,2.91,2.91,0,0,1,1.51-3.32c1.39-.53,2.87.43,4,1.4s2.41,2.08,3.88,1.87a5.92,5.92,0,0,1-1.83-5.53,2.35,2.35,0,0,1,.51-1.12c.77-.83,2.16-.47,3.09.18,2.93,2.06,3.75,6,3.76,9.62a18.06,18.06,0,0,0,.06-4,4,4,0,0,1,1.49-3.51,4.4,4.4,0,0,1,2.27-.53,4.7,4.7,0,0,1,3.68,1c1.12,1.2.83,3.21-.14,4.53a14.231,14.231,0,0,1-3.82,3,8.659,8.659,0,0,0-2.72,2.6,2.219,2.219,0,0,0-.2.47h-8.27a23,23,0,0,1-5.1-3.4Z" transform="translate(592.9 -914.15)" fill="#f3906b"/>
      <path id="Path_147" data-name="Path 147" d="M280.6,746.65a6.549,6.549,0,0,1-2.16-3.26,2.9,2.9,0,0,1,1.51-3.32c1.39-.53,2.87.43,4,1.4s2.42,2.08,3.89,1.88a5.9,5.9,0,0,1-1.83-5.53,2.249,2.249,0,0,1,.51-1.13c.77-.82,2.16-.47,3.08.18,2.93,2.06,3.75,6,3.77,9.63a18.139,18.139,0,0,0,.05-4,4.09,4.09,0,0,1,1.48-3.5,4.549,4.549,0,0,1,2.27-.53,4.68,4.68,0,0,1,3.69,1c1.12,1.2.83,3.2-.15,4.52a14.22,14.22,0,0,1-3.81,3.06,8.38,8.38,0,0,0-2.73,2.6,2.765,2.765,0,0,0-.2.46h-8.26a23.05,23.05,0,0,1-5.11-3.46Z" transform="translate(592.9 -914.15)" fill="#f3906b"/>
      <path id="Path_148" data-name="Path 148" d="M143.87,683.78s-3.1,4.05,1.43,10.16,8.26,11.28,6.75,15.09c0,0-6.83-11.36-12.39-11.51S137.75,690.61,143.87,683.78Z" transform="translate(592.9 -914.15)" fill="#f3906b"/>
      <path id="Path_149" data-name="Path 149" d="M143.87,683.78a5.1,5.1,0,0,0-.63,1.27c-5.43,6.37-8.32,12.32-3.1,12.47,4.85.13,10.68,8.82,12.07,11a4.166,4.166,0,0,1-.16.5s-6.83-11.36-12.39-11.51S137.75,690.61,143.87,683.78Z" transform="translate(592.9 -914.15)" opacity="0.1"/>
      <path id="Path_150" data-name="Path 150" d="M138.11,688.94c0,1.43.16,2.58.36,2.58s.36-1.15.36-2.58-.2-.75-.4-.75S138.11,687.51,138.11,688.94Z" transform="translate(592.9 -914.15)" fill="#ffd037"/>
      <path id="Path_151" data-name="Path 151" d="M136.14,690.64c1.25.68,2.34,1.1,2.43.92s-.84-.86-2.09-1.55-.76-.18-.85,0S134.89,690,136.14,690.64Z" transform="translate(592.9 -914.15)" fill="#ffd037"/>
      <path id="Path_152" data-name="Path 152" d="M160.23,683.78s3.09,4.05-1.43,10.16-8.26,11.28-6.75,15.09c0,0,6.83-11.36,12.39-11.51S166.34,690.61,160.23,683.78Z" transform="translate(592.9 -914.15)" fill="#f3906b"/>
      <path id="Path_153" data-name="Path 153" d="M160.23,683.78a5.1,5.1,0,0,1,.63,1.27c5.42,6.37,8.31,12.32,3.1,12.47-4.86.13-10.68,8.82-12.08,11a4.2,4.2,0,0,0,.17.5s6.83-11.36,12.39-11.51S166.34,690.61,160.23,683.78Z" transform="translate(592.9 -914.15)" opacity="0.1"/>
      <path id="Path_154" data-name="Path 154" d="M166,688.94c0,1.43-.16,2.58-.35,2.58s-.36-1.15-.36-2.58.2-.75.4-.75S166,687.51,166,688.94Z" transform="translate(592.9 -914.15)" fill="#ffd037"/>
      <path id="Path_155" data-name="Path 155" d="M168,690.64c-1.25.68-2.34,1.1-2.44.92s.85-.86,2.1-1.55.76-.18.85,0S169.21,690,168,690.64Z" transform="translate(592.9 -914.15)" fill="#ffd037"/>
      <path id="Path_156" data-name="Path 156" d="M165,708.5s-8.66-.27-11.27-2.12-13.32-4.08-14-1.1-13,14.82-3.23,14.9,22.71-1.52,25.32-3.11S165,708.5,165,708.5Z" transform="translate(592.9 -914.15)" fill="#a8a8a8"/>
      <path id="Path_157" data-name="Path 157" d="M136.35,719.14c9.78.08,22.72-1.52,25.32-3.11,2-1.21,2.77-5.54,3-7.54H165s-.55,7-3.15,8.57-15.55,3.19-25.32,3.11c-2.82,0-3.8-1-3.75-2.51C133.18,718.56,134.25,719.12,136.35,719.14Z" transform="translate(592.9 -914.15)" opacity="0.2"/>
    </g>
    <g id="undraw_feeling_proud_qne1_1_" data-name="undraw_feeling_proud_qne1 (1)" transform="translate(605 206.028)">
      <path id="Path_1" data-name="Path 1" d="M516.326,380.018V565.013l30.944,50.43,2.355,3.836h122.1l2.467-239.261Z" fill="#e6e6e6"/>
      <path id="Path_2" data-name="Path 2" d="M516.326,380.018V565.013l30.944,50.43,1.9-235.425Z" opacity="0.1"/>
      <path id="Path_3" data-name="Path 3" d="M221.566,375.084v185l-30.944,50.43-2.355,3.835H66.17L63.7,375.084Z" fill="#e6e6e6"/>
      <path id="Path_4" data-name="Path 4" d="M221.566,375.084v185l-30.944,50.43-1.9-235.426Z" opacity="0.1"/>
      <path id="Path_5" data-name="Path 5" d="M711.188,371.385v11.1H47.67V366.451l61.665-32.066H656.923Z" fill="#e6e6e6"/>
      <path id="Path_6" data-name="Path 6" d="M711.188,371.385v11.1H47.67V366.451Z" opacity="0.1"/>
      <path id="Path_7" data-name="Path 7" d="M142.635,426.883h-29.6L100.7,418.25h55.5Z" fill="#3f3d56"/>
      <path id="Path_8" data-name="Path 8" d="M142.635,462.649h-29.6L100.7,454.016h55.5Z" fill="#3f3d56"/>
      <path id="Path_9" data-name="Path 9" d="M142.635,513.215h-29.6L100.7,504.581h55.5Z" fill="#3f3d56"/>
      <path id="Path_10" data-name="Path 10" d="M142.635,563.78h-29.6L100.7,555.147h55.5Z" fill="#3f3d56"/>
      <path id="Path_11" data-name="Path 11" d="M595.257,431.816h29.6l12.333-8.633h-55.5Z" fill="#3f3d56"/>
      <path id="Path_12" data-name="Path 12" d="M595.257,467.582h29.6l12.333-8.633h-55.5Z" fill="#3f3d56"/>
      <path id="Path_13" data-name="Path 13" d="M595.257,518.148h29.6l12.333-8.633h-55.5Z" fill="#3f3d56"/>
      <path id="Path_14" data-name="Path 14" d="M595.257,568.713h29.6l12.333-8.633h-55.5Z" fill="#3f3d56"/>
      <path id="Path_15" data-name="Path 15" d="M859.82,235.615H610.634a9.423,9.423,0,0,0-9.424,9.425V412.9a9.423,9.423,0,0,0,9.425,9.424h94.592l-3.544,22.626s-20.253,10.759-6.013,11.076,81.328,0,81.328,0,12.974,0-7.595-11.392l-3.334-22.31h93.75a9.423,9.423,0,0,0,9.424-9.425V245.039a9.423,9.423,0,0,0-9.424-9.424Z" transform="translate(-244.406 -115.159)" fill="#3f3d56"/>
      <rect id="Rectangle_1" data-name="Rectangle 1" width="249.996" height="139.871" transform="translate(365.823 130.424)" fill="#f2f2f2"/>
      <circle id="Ellipse_1" data-name="Ellipse 1" cx="1.582" cy="1.582" r="1.582" transform="translate(489.239 124.412)" fill="#f2f2f2"/>
      <circle id="Ellipse_2" data-name="Ellipse 2" cx="6.013" cy="6.013" r="6.013" transform="translate(484.808 288.333)" fill="#f2f2f2"/>
      <path id="Path_16" data-name="Path 16" d="M481.452,357.952v3.165H311.2v-2.532l.234-.633,4.2-11.392H477.971Z" fill="#3f3d56"/>
      <path id="Path_17" data-name="Path 17" d="M791.376,470.013c-.31,1.326-1.481,2.725-4.127,4.047-9.493,4.747-28.8-1.266-28.8-1.266s-14.873-2.532-14.873-9.177a11.861,11.861,0,0,1,1.3-.775c3.991-2.112,17.225-7.322,40.691.221a9.786,9.786,0,0,1,4.46,2.923,4.667,4.667,0,0,1,1.342,4.027Z" transform="translate(-244.406 -115.159)" fill="#3f3d56"/>
      <path id="Path_18" data-name="Path 18" d="M791.376,470.013c-11.62,4.452-21.977,4.785-32.607-2.6a23.343,23.343,0,0,0-13.886-4.573c3.991-2.112,17.225-7.322,40.69.221a9.786,9.786,0,0,1,4.46,2.923,4.667,4.667,0,0,1,1.342,4.027Z" transform="translate(-244.406 -115.159)" opacity="0.1"/>
      <ellipse id="Ellipse_3" data-name="Ellipse 3" cx="4.114" cy="1.266" rx="4.114" ry="1.266" transform="translate(528.286 349.724)" fill="#f2f2f2"/>
      <path id="Path_19" data-name="Path 19" d="M481.452,357.952v3.165H311.2v-2.532l.234-.633Z" opacity="0.1"/>
      <path id="Path_20" data-name="Path 20" d="M339.068,115.159a8.554,8.554,0,0,0-4.961,1.108c-1.476,1.011-2.406,2.782-3.356,4.429A52.986,52.986,0,0,1,316.317,137c-4.289,3.142-9.742,7.06-9.008,12.853a17.371,17.371,0,0,0,2.091,5.426c3.957,7.987,14.754,14.159,13.692,23.273,3.931-6.581-1.327-9.835,2.6-16.416,1.872-3.134,5.124-6.672,7.951-4.7.946.659,1.568,1.841,2.553,2.419,2.351,1.38,4.853-1.258,6.934-3.126,7.177-6.443,17.383-4.755,26.314-2.747,4.216.948,8.847,2.191,11.34,6.221,3.277,5.3-3.113,11.02-4.728,17.01a3.264,3.264,0,0,0,3.5,4.062c2.68-.264,5.854-.481,6.013-1.657,3.372.12,7.5-.262,8.947-3.773a14.761,14.761,0,0,0,.693-4.293c.53-5.9,3.033-11.277,4.691-16.89s2.379-12.191-.419-17.167a19.865,19.865,0,0,0-3.666-4.456C379.94,117.67,359.063,115.136,339.068,115.159Z" transform="translate(-244.406 -115.159)" fill="#2f2e41"/>
      <path id="Path_21" data-name="Path 21" d="M326.544,190.064s3.453,28.778-9.209,31.081,11.511,41.441,11.511,41.441l57.557,6.907L372.59,223.447s-9.209-3.453-3.453-26.476S326.544,190.064,326.544,190.064Z" transform="translate(-244.406 -115.159)" fill="#ffb8b8"/>
      <path id="Path_22" data-name="Path 22" d="M47.028,569.318l4.6,63.313H75.806L68.9,569.318Z" fill="#ffb8b8"/>
      <path id="Path_23" data-name="Path 23" d="M224.3,449.6l3.453,52.952,26.477-11.511L243.872,447.3Z" fill="#ffb8b8"/>
      <path id="Path_24" data-name="Path 24" d="M274.167,442.738s1.151,66.766,8.058,88.637,5.756,23.023,4.6,26.476-2.3,1.151-2.3,6.907-2.3,96.7,0,104.753-6.907,21.872,0,23.023,39.139,0,40.29-6.907-9.209-9.209-4.6-13.814,11.511-99,11.511-99L347.84,507.2l29.93-34.534h63.313l19.569,75.975s-8.058,21.872-2.3,21.872,40.29,6.907,40.29-18.418-11.512-100.148-13.814-102.45,1.151-10.36-2.3-13.814S438.78,408.2,423.815,403.6s-35.958-10.085-35.958-10.085Z" transform="translate(-244.406 -115.159)" fill="#2f2e41"/>
      <path id="Path_25" data-name="Path 25" d="M498.639,596.991s-17.267-5.756-25.325,11.511-4.6,21.872-4.6,21.872,26.476,9.209,31.081,4.6c2-2,8.365-2.7,14.913-2.846,9.973-.224,12.626-14.333,3.207-17.619q-.421-.147-.853-.255C507.848,611.955,498.639,596.991,498.639,596.991Z" transform="translate(-244.406 -115.159)" fill="#2f2e41"/>
      <circle id="Ellipse_4" data-name="Ellipse 4" cx="34.534" cy="34.534" r="34.534" transform="translate(73.504 24.831)" fill="#ffb8b8"/>
      <path id="Path_26" data-name="Path 26" d="M307.55,235.534s56.406,11.511,70.219-6.907,19.569,51.8,19.569,51.8l6.907,73.673-10.36,40.29s-54.1,43.743-71.37,47.2-43.743,5.756-43.743,5.756,8.058-127.776,8.058-130.078S307.55,235.534,307.55,235.534Z" transform="translate(-244.406 -115.159)" fill="#77acb7"/>
      <path id="Path_27" data-name="Path 27" d="M324.7,213.945s-12.55-7.189-16-.282-35.685,24.173-39.138,24.173,6.907,95.544,2.3,107.056-26.476,95.544-13.814,102.451,3.453-6.907,16.116,10.36,74.824,17.267,78.277,10.36-27.627-58.708-21.872-107.056,14.965-115.114,6.907-124.323S324.7,213.945,324.7,213.945Z" transform="translate(-244.406 -115.159)" fill="#2f2e41"/>
      <path id="Path_28" data-name="Path 28" d="M366.258,221.72l1.6-5.518s47.9,15.878,50.2,26.238,1.151,82.882-6.907,88.638-19.569,14.965-11.511,28.778,17.267,28.778,24.174,29.93,19.569,9.209,16.116,17.267-44.894-6.907-44.894-6.907-27.627-20.72-26.476-52.952S366.258,221.72,366.258,221.72Z" transform="translate(-244.406 -115.159)" fill="#2f2e41"/>
      <path id="Path_29" data-name="Path 29" d="M406.548,357.554l-27.627,51.8S338.631,450.8,361.654,455.4s35.685-37.987,35.685-37.987l29.93-42.592Z" transform="translate(-244.406 -115.159)" fill="#ffb8b8"/>
      <path id="Path_30" data-name="Path 30" d="M340.75,124.195a7.838,7.838,0,0,0-4.039.783,9.413,9.413,0,0,0-2.732,3.131,39.773,39.773,0,0,1-11.75,11.524c-3.491,2.221-7.93,4.99-7.333,9.084a11.36,11.36,0,0,0,1.7,3.835,30.164,30.164,0,0,1,3.665,18.8l9.6-13.954c1.524-2.215,4.171-4.715,6.472-3.324.77.466,1.276,1.3,2.078,1.71,1.914.975,3.95-.889,5.644-2.21,5.842-4.554,14.151-3.361,21.421-1.942,3.432.67,7.2,1.549,9.231,4.4,3.372,4.733-.149,11.572,1.819,17.04a5.023,5.023,0,0,0,2.079-3.317c2.745.085,6.108-.185,7.283-2.666a9.188,9.188,0,0,0,.564-3.034c.432-4.168,2.469-7.971,3.819-11.938s1.937-8.616-.341-12.133a14.68,14.68,0,0,0-2.984-3.149C374.022,125.97,357.027,124.178,340.75,124.195Z" transform="translate(-244.406 -115.159)" fill="#2f2e41"/>
      <path id="Path_31" data-name="Path 31" d="M406.548,237.836l10.725,2.847s24.96,63.919,19.2,107.662-9.209,34.534-9.209,34.534-9.209-20.72-29.93-16.116Z" transform="translate(-244.406 -115.159)" fill="#2f2e41"/>
      <path id="Path_32" data-name="Path 32" d="M293.029,739.422c-2.776,3.772-2.219,9.165-4.678,13.151-2.131,3.455-6.148,5.267-8.814,8.329a22.329,22.329,0,0,0-2.266,3.26c-2.473,4.143-4.483,9.452-2.048,13.616,1.959,3.35,6.078,4.66,9.855,5.552,4.774,1.128,9.734,2.031,14.564,1.169s9.549-3.819,11.271-8.412a32.5,32.5,0,0,1,1.205-3.4c2.617-5.153,10.828-5.209,13.506-10.33,1.875-3.584.151-7.916-1.571-11.576L318.791,739.6c-1.746-3.709-8.824-1.576-12.513-2.465C301.465,735.978,296.491,734.7,293.029,739.422Z" transform="translate(-244.406 -115.159)" fill="#2f2e41"/>
      <path id="Path_33" data-name="Path 33" d="M254.6,380.577,302.946,455.4s29.93,37.987,39.139,20.72-32.232-46.045-32.232-46.045l-31.081-57.557Z" transform="translate(-244.406 -115.159)" fill="#ffb8b8"/>
      <path id="Path_34" data-name="Path 34" d="M278.772,240.138l-9.209-2.3s-18.418,5.756-23.023,29.93-1.151,120.869,4.6,122.02,28.427-16.837,32.056-13.023-7.882-15.755-4.429-26.116S278.772,240.138,278.772,240.138Z" transform="translate(-244.406 -115.159)" fill="#2f2e41"/>
      <g id="Group_13" data-name="Group 13">
        <rect id="Rectangle_55" data-name="Rectangle 55" width="29.752" height="7.163" transform="translate(437.407 176.363)" fill="#77acb7"/>
        <rect id="Rectangle_56" data-name="Rectangle 56" width="10.468" height="7.163" transform="translate(559.722 176.363)" fill="#77acb7"/>
        <rect id="Rectangle_57" data-name="Rectangle 57" width="10.468" height="7.163" transform="translate(580.659 176.363)" fill="#77acb7"/>
        <rect id="Rectangle_58" data-name="Rectangle 58" width="71.075" height="7.163" transform="translate(477.628 176.363)" fill="#77acb7"/>
        <rect id="Rectangle_59" data-name="Rectangle 59" width="29.752" height="7.163" transform="translate(399.941 222.644)" fill="#77acb7"/>
        <rect id="Rectangle_60" data-name="Rectangle 60" width="10.468" height="7.163" transform="translate(522.256 222.644)" fill="#77acb7"/>
        <rect id="Rectangle_61" data-name="Rectangle 61" width="10.468" height="7.163" transform="translate(543.193 222.644)" fill="#77acb7"/>
        <rect id="Rectangle_62" data-name="Rectangle 62" width="71.075" height="7.163" transform="translate(440.162 222.644)" fill="#77acb7"/>
        <rect id="Rectangle_63" data-name="Rectangle 63" width="29.752" height="7.163" transform="translate(522.807 192.341)" fill="#77acb7"/>
        <rect id="Rectangle_64" data-name="Rectangle 64" width="29.752" height="7.163" transform="translate(563.028 192.341)" fill="#77acb7"/>
        <rect id="Rectangle_66" data-name="Rectangle 66" width="10.468" height="7.163" transform="translate(399.941 192.341)" fill="#77acb7"/>
        <rect id="Rectangle_67" data-name="Rectangle 67" width="10.468" height="7.163" transform="translate(420.878 192.341)" fill="#77acb7"/>
        <rect id="Rectangle_68" data-name="Rectangle 68" width="71.075" height="7.163" transform="translate(441.815 192.341)" fill="#77acb7"/>
        <rect id="Rectangle_69" data-name="Rectangle 69" width="29.752" height="7.163" transform="translate(461.099 207.768)" fill="#77acb7"/>
        <rect id="Rectangle_70" data-name="Rectangle 70" width="29.752" height="7.163" transform="translate(420.878 207.768)" fill="#77acb7"/>
        <rect id="Rectangle_71" data-name="Rectangle 71" width="10.468" height="7.163" transform="translate(399.941 207.768)" fill="#77acb7"/>
        <rect id="Rectangle_73" data-name="Rectangle 73" width="10.468" height="7.163" transform="translate(582.312 207.768)" fill="#77acb7"/>
        <rect id="Rectangle_74" data-name="Rectangle 74" width="71.075" height="7.163" transform="translate(500.768 207.768)" fill="#77acb7"/>
      </g>
    </g>
  </g>
</svg>
